HIERARCHY
ROOT Hips
{
  OFFSET 279.157 85.6768 304.565
  CHANNELS 6 Xposition Yposition Zposition Zrotation Xrotation Yrotation
  JOINT LeftUpLeg
  {
    OFFSET 8.64259 1.95398 -2.38835
    CHANNELS 3 Zrotation Xrotation Yrotation
    JOINT LeftLeg
    {
      OFFSET 43.7702 0 0
      CHANNELS 3 Zrotation Xrotation Yrotation
      JOINT LeftFoot
      {
        OFFSET 40.6238 0 0
        CHANNELS 3 Zrotation Xrotation Yrotation
        JOINT LeftToeBase
        {
          OFFSET 12.7242 0 0
          CHANNELS 3 Zrotation Xrotation Yrotation
          End Site
          {
            OFFSET 0 0 0
          }
        }
      }
    }
  }
  JOINT RightUpLeg
  {
    OFFSET -8.2249 1.95398 -2.59336
    CHANNELS 3 Zrotation Xrotation Yrotation
    JOINT RightLeg
    {
      OFFSET 43.5653 0 0
      CHANNELS 3 Zrotation Xrotation Yrotation
      JOINT RightFoot
      {
        OFFSET 40.6238 0 0
        CHANNELS 3 Zrotation Xrotation Yrotation
        JOINT RightToeBase
        {
          OFFSET 12.7242 0 0
          CHANNELS 3 Zrotation Xrotation Yrotation
          End Site
          {
            OFFSET 0 0 0
          }
        }
      }
    }
  }
  JOINT Spine
  {
    OFFSET 0.165834 0.87714 6.61349
    CHANNELS 3 Zrotation Xrotation Yrotation
    JOINT Spine1
    {
      OFFSET 7.38963 1.71661e-005 0
      CHANNELS 3 Zrotation Xrotation Yrotation
      JOINT Spine2
      {
        OFFSET 11.9445 1.14441e-005 0
        CHANNELS 3 Zrotation Xrotation Yrotation
        JOINT Spine3
        {
          OFFSET 14.7254 4.19617e-005 0
          CHANNELS 3 Zrotation Xrotation Yrotation
          JOINT Spine4
          {
            OFFSET 10.9679 0 0
            CHANNELS 3 Zrotation Xrotation Yrotation
            JOINT RightShoulder
            {
              OFFSET 2.46616 -1.6653 3.69651
              CHANNELS 3 Zrotation Xrotation Yrotation
              JOINT RightArm
              {
                OFFSET 13.0012 0 0
                CHANNELS 3 Zrotation Xrotation Yrotation
                JOINT RightForeArm
                {
                  OFFSET 28.7848 1.52588e-005 0
                  CHANNELS 3 Zrotation Xrotation Yrotation
                  JOINT RightHand
                  {
                    OFFSET 26.5688 1.52588e-005 0
                    CHANNELS 3 Zrotation Xrotation Yrotation
                    End Site
                    {
                      OFFSET 0 0 0
                    }
                  }
                }
              }
            }
            JOINT LeftShoulder
            {
              OFFSET 2.38034 -1.29275 -3.7523
              CHANNELS 3 Zrotation Xrotation Yrotation
              JOINT LeftArm
              {
                OFFSET 16.3182 6.10351e-005 0
                CHANNELS 3 Zrotation Xrotation Yrotation
                JOINT LeftForeArm
                {
                  OFFSET 27.0901 0 0
                  CHANNELS 3 Zrotation Xrotation Yrotation
                  JOINT LeftHand
                  {
                    OFFSET 24.5451 1.52588e-005 0
                    CHANNELS 3 Zrotation Xrotation Yrotation
                    End Site
                    {
                      OFFSET 0 0 0
                    }
                  }
                }
              }
            }
            JOINT Neck
            {
              OFFSET 5.0226 -0.0266342 0
              CHANNELS 3 Zrotation Xrotation Yrotation
              JOINT Head
              {
                OFFSET 6.69364 2.86102e-005 0
                CHANNELS 3 Zrotation Xrotation Yrotation
                End Site
                {
                  OFFSET 0 0 0
                }
              }
            }
          }
        }
      }
    }
  }
}
MOTION
Frames:	15
Frame Time:	0.0416667
-212.535 97.4332 181.539 -101.763 -44.6787 -102.042 -175.255 3.23121 84.5296 -25.8741 9.25296 -1.68087 74.1816 8.5418 -1.56565 12.7026 -12.4326 8.17845 173.218 15.399 85.5907 -53.7069 -11.8322 -1.95429 65.3884 -3.36105 -1.30548 26.3535 0.517772 2.079 0.934813 8.46374 -89.9066 9.94712 1.9056 0.0298334 -1.72242 1.90507 -0.0541047 -24.268 1.8085 0.601357 -4.25532 1.80848 0.60134 93.957 -27.759 -99.4535 42.0465 -12.6846 -5.40512 4.52367 -29.3435 -11.7314 -24.0774 -0.965179 -7.8933 -88.565 -54.2196 81.6492 -22.1863 8.01899 7.09005 0.87595 0.689838 -12.0785 -0.342348 -0.195998 -10.317 -4.87494 -2.68208 -4.80829 -0.260485 -2.25543 -3.99209 
-209.872 96.9982 177.588 -101.665 -46.3103 -102.852 -175.255 7.39689 84.2623 -26.7602 12.4316 -2.16508 71.6898 7.71561 0.444819 11.4641 -12.9728 7.52871 173.325 6.0236 84.1172 -57.7595 -17.5261 -3.81245 64.4805 -2.76355 -0.475619 24.802 0.970547 2.32615 1.19033 8.24855 -89.6038 10.3723 2.55283 0.563961 -1.2962 2.57519 0.450985 -23.8472 2.26526 1.30546 -3.83451 2.26526 1.30547 88.5514 -28.9321 -110.095 40.0015 -6.40036 -0.871595 0.71921 -28.1608 -17.0367 -26.7435 -0.623795 -9.21188 -88.2275 -54.8584 82.2417 -24.7539 3.98312 12.3843 1.67854 -5.13994 -14.0046 1.13619 -0.175589 -7.25235 -5.17193 -4.3512 -5.46542 0.0472058 -3.89949 -5.45364 
-206.569 96.1175 172.502 -100.114 -47.8266 -102.025 -175.622 14.2028 84.188 -28.7404 13.1113 -2.06829 68.1434 5.33674 0.453601 11.3413 -12.7797 6.93965 173.948 -3.28063 84.7809 -48.0206 -22.238 -5.45193 67.6839 -5.0708 -2.60047 29.3624 -0.856004 5.80595 1.35523 8.0543 -89.3436 10.7527 3.00138 1.02853 -0.915141 3.04374 0.895331 -23.4684 2.55348 1.88342 -3.45577 2.55348 1.88342 88.5353 -28.2144 -110.424 39.6803 -6.57136 -3.7395 -1.69456 -27.4123 -20.1626 -26.9823 -0.320692 -10.5224 -86.9313 -55.0342 84.1098 -25.72 2.3337 13.0082 2.65262 -4.29041 -15.7577 -3.48669 -0.0190392 -10.6748 -3.73522 -5.52527 -6.45233 -0.403154 -4.87307 -6.41888 
-201.809 95.4143 165.311 -96.9345 -47.6657 -99.0106 -176.53 20.5519 85.4011 -24.921 13.4004 -1.67913 61.3402 0.663326 -0.354717 10.0931 -13.5175 6.73242 175.028 -7.24552 87.5491 -33.9686 -19.9445 -5.6702 76.1648 -10.9275 -4.55229 36.0408 -2.77988 5.11218 1.75239 7.95682 -89.3463 10.9459 3.79142 0.942397 -0.719703 3.82922 0.774376 -23.2881 3.33278 2.03934 -3.27548 3.33276 2.03933 88.4352 -26.5883 -111.381 39.0223 -5.87155 -5.46221 -4.12241 -27.7844 -23.9258 -28.273 -0.125933 -11.4242 -87.1172 -58.8325 84.405 -21.1958 0.134927 9.26341 5.26068 1.33874 -17.2534 -4.88454 0.0814763 -12.4746 -1.85157 -6.6106 -3.85876 0.154755 -6.22942 -9.16346 
-196.698 95.6974 157.898 -96.26 -50.4338 -95.8326 -177.175 21.7065 87.6177 -16.8994 10.0103 -1.23016 63.314 2.50625 0.3833 8.01948 -14.8738 6.648 175.094 -4.34615 90.4349 -28.6721 -18.8149 -2.72936 79.697 -12.6735 -3.21069 31.164 -1.15962 3.2651 1.49487 8.12493 -89.7628 10.6243 3.08638 0.191996 -1.04296 3.09183 0.055837 -23.6046 2.88587 1.11147 -3.59196 2.88588 1.11147 88.3424 -25.4502 -112.12 36.4333 -7.51723 -7.76095 -5.23938 -29.1775 -25.8204 -26.9699 -0.134641 -12.1731 -87.331 -61.5989 84.5012 -16.6223 1.71528 3.93271 5.16165 3.6609 -16.2547 -2.88089 -0.0685977 -9.30517 2.21815 -6.30693 -0.439665 -0.954218 -6.22595 -9.63881 
-193.584 97.341 151.667 -97.6752 -55.0766 -97.5352 -176.021 20.8273 87.057 -19.1041 -1.48595 -2.0251 63.8522 2.8602 -0.59671 14.5013 -12.2309 10.5431 175.786 -1.40286 91.9259 -26.0688 -14.7366 -1.815 75.9474 -9.76628 -2.98054 26.7699 0.1265 3.84192 0.88051 8.16649 -89.8204 10.5399 1.83636 0.192695 -1.1297 1.84306 0.111653 -23.674 1.69352 0.735845 -3.66138 1.69352 0.735842 88.892 -26.762 -110.357 36.4183 -8.40139 -6.89038 -3.4392 -26.0733 -23.3974 -27.1323 -0.129263 -11.116 -89.5944 -58.4285 80.9482 -17.2334 4.71302 0.060613 2.62137 2.59856 -10.1938 -1.07661 -0.152746 -9.59961 1.12937 -5.60236 -1.67611 -0.853603 -5.34823 -7.30572 
-191.253 98.3571 146.802 -99.0193 -57.7353 -99.3501 -174.996 20.7199 88.3148 -35.5909 7.64128 -0.683788 67.1492 4.87669 -0.177566 10.7156 -12.9471 6.38798 175.487 0.138506 91.8128 -22.7784 -13.3495 -1.01218 72.4891 -7.10503 -1.57838 25.3307 0.748349 2.69848 0.449986 8.0914 -89.8021 10.6906 0.987356 0.302447 -0.979985 0.999695 0.25869 -23.5174 0.850794 0.585225 -3.5048 0.850791 0.585214 89.7705 -28.4964 -107.814 39.9052 -6.75026 -2.54415 -2.69194 -26.9919 -22.5098 -28.839 -0.268463 -10.3598 -89.2714 -53.6261 80.5329 -19.1096 8.02079 -4.44405 1.19879 3.58553 -8.23002 0.0813403 -0.140157 -7.09013 1.23351 -5.04999 -4.0209 -1.50427 -4.39495 -3.48893 
-188.737 98.5617 142.877 -99.3384 -58.4447 -99.0859 -175.365 17.2431 91.2003 -50.2919 13.1561 2.37991 69.5404 6.26389 -0.473733 12.7559 -12.1401 7.61473 175.546 3.18604 92.4186 -22.7181 -13.1067 -0.433608 70.3732 -6.03295 -1.50697 24.4014 1.00725 2.93508 0.00471232 7.93687 -89.9904 10.999 0.0139515 0.0189045 -0.671968 0.0147576 0.0182693 -23.207 0.00761799 0.0222201 -3.19432 0.00761832 0.0222223 90.3326 -29.0455 -106.46 42.6628 -8.33786 1.55892 -0.446449 -27.6758 -19.3568 -27.2707 -0.515778 -9.55726 -89.0144 -52.5183 80.6896 -19.31 9.41923 -6.59554 1.54343 4.55988 -11.8096 2.006 -0.242643 -8.35018 1.04106 -3.40129 -3.79508 -1.66855 -2.79626 -1.04002 
-185.917 98.3262 139.656 -102.054 -58.8213 -99.4997 -175.809 9.04973 95.4415 -56.4687 19.6991 5.60569 68.3348 5.7463 -0.236468 14.0635 -10.8477 6.64677 175.798 4.92685 93.5102 -23.1376 -12.8035 0.289921 68.5237 -4.96852 -1.63915 24.4649 1.03812 2.63385 -0.457835 7.89676 -90.3496 11.0775 -1.07346 -0.592017 -0.593133 -1.09847 -0.544202 -23.1296 -0.8459 -0.887267 -3.11697 -0.845913 -0.887267 90.2707 -29.9116 -106.255 44.7965 -8.27868 5.40622 3.29356 -23.3917 -13.9558 -25.8196 -0.409492 -8.93626 -88.8329 -51.724 80.8057 -21.4703 9.50726 -9.16039 2.69902 5.76157 -14.4866 2.39729 -0.334734 -10.2281 -0.86068 -1.49384 -2.14723 -1.26353 -1.19193 0.302943 
-182.252 97.6784 136.539 -103.219 -59.1988 -99.1745 -174.757 0.993619 98.0738 -54.3617 29.5432 7.61994 65.6356 3.99101 -1.01889 14.4144 -10.1402 5.5104 176.204 8.5222 94.0686 -25.1506 -11.9228 0.354237 66.8708 -3.74416 -1.18252 24.0234 1.13365 2.90186 -0.776432 7.88238 -90.6314 11.1014 -1.83862 -1.0787 -0.568592 -1.88428 -0.996723 -23.1072 -1.42945 -1.58142 -3.09457 -1.42944 -1.58142 90.2464 -31.0941 -105.863 45.4543 -6.53607 7.54926 5.09557 -19.5912 -10.0259 -22.0639 -0.177871 -9.7028 -88.3097 -50.6992 81.3893 -23.7626 9.27013 -13.8855 4.75554 10.967 -16.1229 0.338814 -0.276231 -12.1017 -1.67913 -0.153119 -0.6339 -1.73355 -0.0700694 1.32727 
-177.097 96.9212 132.593 -103.167 -60.105 -98.8157 -173.071 -4.29137 98.4531 -46.1056 35.2484 7.23444 68.3243 6.21535 -0.126929 21.9797 -6.00825 7.4182 176.19 13.1374 93.0651 -25.6727 -11.9708 0.141965 63.718 -1.70124 -0.947515 22.9842 1.35778 3.46136 -1.03319 7.93295 -90.8866 10.9893 -2.46754 -1.52859 -0.680067 -2.53241 -1.41849 -23.2202 -1.89417 -2.19952 -3.20751 -1.89414 -2.19951 91.1302 -30.6148 -104.301 45.3486 -5.64322 7.23659 4.829 -22.0632 -10.329 -20.458 -0.161497 -11.0794 -89.2623 -51.5194 80.1327 -24.0124 9.45695 -18.5628 5.88432 13.7724 -17.0503 1.17767 -0.367141 -13.2175 -1.44275 0.636988 1.5691 -2.0694 0.429906 1.54492 
-170.323 95.8996 127.215 -100.394 -62.3522 -97.1256 -173.776 -4.41461 96.2226 -37.5027 32.1747 5.6153 78.633 13.3504 -0.916335 28.258 -3.42297 12.6268 176.267 18.6408 90.5923 -22.3314 -11.9345 -0.494114 58.062 1.9497 0.47196 23.0316 1.40481 3.13583 -1.25998 7.96663 -90.8639 10.9205 -2.90811 -1.4441 -0.747794 -2.96885 -1.31462 -23.2949 -2.3397 -2.2515 -3.28223 -2.33973 -2.25151 90.8546 -32.4083 -104.228 42.4406 -4.1686 5.25566 2.66336 -21.6278 -14.7355 -20.1628 0.328126 -14.2546 -89.1578 -48.5228 79.6858 -26.2916 9.23146 -23.076 7.38745 19.2588 -16.6705 -0.396384 -0.261286 -14.2944 -0.688809 0.50349 -0.997363 -2.18106 0.62854 3.10379 
-163.653 96.0264 121.583 -97.8485 -59.8529 -97.8071 -175.367 -0.801395 90.4788 -35.2095 27.1011 3.06388 82.9623 15.6851 -2.42012 22.0862 -6.54147 9.18613 176.658 20.5927 87.4117 -15.6187 -11.9085 -2.00299 60.2963 0.584887 -0.535033 24.5105 0.906703 3.32349 -0.899372 8.02543 -90.5026 10.8162 -2.02283 -0.811239 -0.853358 -2.05656 -0.721405 -23.3959 -1.68548 -1.38178 -3.38325 -1.68549 -1.38177 90.7075 -34.089 -103.957 39.1116 -5.36849 1.95859 0.288616 -24.7794 -16.9309 -27.8035 -0.399049 -9.20047 -89.297 -48.5511 79.4811 -24.6198 10.0133 -23.5087 6.93504 21.9218 -16.336 0.254966 -0.28247 -12.7254 -1.90916 0.0370543 -3.32899 -2.92687 0.413332 3.941 
-157.958 97.3988 117.273 -95.1394 -53.0234 -95.4835 -174.898 2.28914 88.1566 -30.3592 21.7376 0.385867 79.323 12.1946 -4.22447 19.8383 -8.36518 10.0776 176.003 19.1557 88.5694 -10.9346 0.907198 -0.388266 67.6883 -4.04592 -2.32641 19.4817 2.7837 2.00641 -0.157908 8.01042 -90.3558 10.8509 -0.478711 -0.663045 -0.820067 -0.507451 -0.64134 -23.3541 -0.257318 -0.776269 -3.34147 -0.257329 -0.776269 89.4123 -31.9722 -107.156 39.4343 -6.30357 -0.157927 1.17207 -18.3623 -15.4742 -27.0174 0.254647 -10.5952 -88.5999 -50.2442 80.87 -23.458 10.2267 -16.4023 4.22382 15.0384 -14.1317 0.513002 -0.255311 -10.8759 -4.68886 1.31867 -2.02802 -3.39613 1.4835 2.37944 
-153.131 98.7023 114.076 -93.8394 -46.9361 -93.5699 -175.29 2.64297 86.7774 -23.6253 17.0719 -0.543082 76.027 10.8092 -1.85886 16.1732 -10.0619 8.15954 174.774 20.7799 89.6301 -26.0633 1.36642 1.06878 66.0944 -2.90725 -1.63788 20.2177 2.22058 3.51079 0.440385 7.9981 -90.2133 10.8795 0.778292 -0.496773 -0.791286 0.75568 -0.530561 -23.3282 0.891623 -0.239886 -3.3155 0.891609 -0.239892 88.4002 -30.3245 -109.774 39.3057 -8.37346 -2.9243 1.507 -24.8415 -16.4134 -25.0451 -0.268434 -10.2759 -87.8799 -51.7032 82.2054 -21.8617 10.656 -7.31548 1.27617 6.79135 -11.4282 0.256839 -0.205016 -9.66963 -6.05943 3.2674 0.253355 -4.49858 3.2135 0.968213 
